<?xml version="1.0" encoding="utf-8"?>
<!-- Generator: Adobe Illustrator 14.0.0, SVG Export Plug-In . SVG Version: 6.00 Build 43363)  -->
<!DOCTYPE svg PUBLIC "-//W3C//DTD SVG 1.1//EN" "http://www.w3.org/Graphics/SVG/1.1/DTD/svg11.dtd">
<svg version="1.1" id="Layer_1" xmlns="http://www.w3.org/2000/svg" xmlns:xlink="http://www.w3.org/1999/xlink" x="0px" y="0px"
	 width="114.922px" height="115.523px" viewBox="0 0 114.922 115.523" enable-background="new 0 0 114.922 115.523"
	 xml:space="preserve">
<path fill="#FFFFFF" d="M15.708,0c1.032,0,2.053,0.101,3.065,0.302c1.011,0.201,1.993,0.499,2.945,0.894
	c0.953,0.396,1.859,0.879,2.717,1.452s1.65,1.224,2.381,1.953c0.729,0.729,1.38,1.523,1.953,2.381
	c0.572,0.857,1.057,1.763,1.451,2.716c0.395,0.952,0.692,1.935,0.895,2.946c0.201,1.012,0.301,2.033,0.301,3.064
	s-0.1,2.053-0.301,3.064c-0.202,1.012-0.5,1.994-0.895,2.947s-0.879,1.857-1.451,2.716c-0.573,0.857-1.225,1.65-1.953,2.38
	c-0.73,0.729-1.523,1.381-2.381,1.954c-0.857,0.572-1.764,1.057-2.717,1.451c-0.952,0.395-1.935,0.692-2.945,0.894
	c-1.013,0.201-2.033,0.302-3.065,0.302c-1.031,0-2.053-0.101-3.063-0.302c-1.013-0.201-1.994-0.499-2.947-0.894
	S7.839,29.342,6.98,28.77c-0.856-0.573-1.65-1.225-2.38-1.954c-0.729-0.729-1.381-1.522-1.954-2.38
	c-0.572-0.858-1.057-1.763-1.45-2.716c-0.396-0.953-0.693-1.936-0.895-2.947S0,16.739,0,15.708s0.101-2.053,0.302-3.064
	s0.499-1.994,0.895-2.946c0.394-0.953,0.878-1.858,1.45-2.716C3.22,6.124,3.872,5.33,4.601,4.601c0.729-0.729,1.523-1.38,2.38-1.953
	c0.858-0.573,1.764-1.057,2.717-1.452c0.953-0.395,1.935-0.692,2.947-0.894C13.655,0.101,14.677,0,15.708,0z"/>
<path fill="#FFFFFF" d="M15.708,42.911c1.032,0,2.053,0.101,3.065,0.303c1.011,0.201,1.993,0.499,2.945,0.894
	c0.953,0.395,1.859,0.879,2.717,1.451c0.857,0.573,1.65,1.225,2.381,1.954c0.729,0.729,1.38,1.522,1.953,2.38
	c0.572,0.857,1.057,1.763,1.451,2.716s0.692,1.936,0.895,2.947c0.201,1.011,0.301,2.033,0.301,3.064s-0.1,2.053-0.301,3.064
	c-0.202,1.012-0.5,1.993-0.895,2.946s-0.879,1.858-1.451,2.716c-0.573,0.857-1.225,1.651-1.953,2.381
	c-0.73,0.729-1.523,1.38-2.381,1.953s-1.764,1.057-2.717,1.451c-0.952,0.396-1.935,0.693-2.945,0.895
	c-1.013,0.201-2.033,0.302-3.065,0.302c-1.031,0-2.053-0.101-3.063-0.302c-1.013-0.201-1.994-0.499-2.947-0.895
	c-0.953-0.395-1.858-0.878-2.717-1.451c-0.856-0.573-1.65-1.225-2.38-1.953c-0.729-0.729-1.381-1.523-1.954-2.381
	c-0.572-0.857-1.057-1.763-1.45-2.716c-0.396-0.953-0.693-1.935-0.895-2.946S0,59.651,0,58.62s0.101-2.054,0.302-3.064
	c0.201-1.012,0.499-1.994,0.895-2.947c0.394-0.953,0.878-1.858,1.45-2.716c0.573-0.857,1.226-1.65,1.954-2.38
	c0.729-0.729,1.523-1.381,2.38-1.954c0.858-0.572,1.764-1.057,2.717-1.451s1.935-0.692,2.947-0.894
	C13.655,43.012,14.677,42.911,15.708,42.911z"/>
<path fill="#FFFFFF" d="M56.637,0c1.031,0,2.053,0.101,3.064,0.302s1.994,0.499,2.947,0.894c0.952,0.396,1.857,0.879,2.716,1.452
	c0.857,0.573,1.65,1.224,2.38,1.953s1.381,1.523,1.954,2.381s1.057,1.763,1.451,2.716c0.395,0.952,0.692,1.935,0.894,2.946
	c0.202,1.012,0.302,2.033,0.302,3.064s-0.1,2.053-0.302,3.064c-0.201,1.012-0.499,1.994-0.894,2.947s-0.878,1.857-1.451,2.716
	c-0.573,0.857-1.225,1.65-1.954,2.38s-1.522,1.381-2.38,1.954c-0.858,0.572-1.764,1.057-2.716,1.451
	c-0.953,0.395-1.936,0.692-2.947,0.894s-2.033,0.302-3.064,0.302s-2.053-0.101-3.064-0.302s-1.993-0.499-2.946-0.894
	s-1.859-0.879-2.716-1.451c-0.858-0.573-1.651-1.225-2.38-1.954c-0.73-0.729-1.381-1.522-1.954-2.38
	c-0.573-0.858-1.057-1.763-1.452-2.716c-0.394-0.953-0.692-1.936-0.894-2.947s-0.302-2.033-0.302-3.064s0.101-2.053,0.302-3.064
	s0.5-1.994,0.894-2.946c0.396-0.953,0.879-1.858,1.452-2.716S44.8,5.33,45.53,4.601c0.729-0.729,1.521-1.38,2.38-1.953
	c0.856-0.573,1.763-1.057,2.716-1.452c0.953-0.395,1.935-0.692,2.946-0.894S55.605,0,56.637,0z"/>
<path fill="#FFFFFF" d="M56.637,42.911c1.031,0,2.053,0.101,3.064,0.303c1.012,0.201,1.994,0.499,2.947,0.894
	c0.952,0.395,1.857,0.879,2.716,1.451c0.857,0.573,1.65,1.225,2.38,1.954s1.381,1.522,1.954,2.38s1.057,1.763,1.451,2.716
	s0.692,1.936,0.894,2.947c0.202,1.011,0.302,2.033,0.302,3.064s-0.1,2.053-0.302,3.064c-0.201,1.012-0.499,1.993-0.894,2.946
	s-0.878,1.858-1.451,2.716s-1.225,1.651-1.954,2.381c-0.729,0.729-1.522,1.38-2.38,1.953c-0.858,0.573-1.764,1.057-2.716,1.451
	c-0.953,0.396-1.936,0.693-2.947,0.895s-2.033,0.302-3.064,0.302s-2.053-0.101-3.064-0.302s-1.993-0.499-2.946-0.895
	c-0.953-0.395-1.859-0.878-2.716-1.451c-0.858-0.573-1.651-1.225-2.38-1.953c-0.73-0.729-1.381-1.523-1.954-2.381
	s-1.057-1.763-1.452-2.716c-0.394-0.953-0.692-1.935-0.894-2.946s-0.302-2.033-0.302-3.064s0.101-2.054,0.302-3.064
	c0.201-1.012,0.5-1.994,0.894-2.947c0.396-0.953,0.879-1.858,1.452-2.716s1.224-1.65,1.954-2.38c0.729-0.729,1.521-1.381,2.38-1.954
	c0.856-0.572,1.763-1.057,2.716-1.451s1.935-0.692,2.946-0.894C54.584,43.012,55.605,42.911,56.637,42.911z"/>
<path fill="#FFFFFF" d="M99.214,0c1.031,0,2.053,0.101,3.064,0.302s1.993,0.499,2.946,0.894c0.953,0.396,1.858,0.879,2.717,1.452
	c0.856,0.573,1.65,1.224,2.38,1.953c0.729,0.729,1.38,1.523,1.953,2.381s1.057,1.763,1.451,2.716
	c0.396,0.952,0.693,1.935,0.895,2.946s0.302,2.033,0.302,3.064s-0.101,2.053-0.302,3.064s-0.499,1.994-0.895,2.947
	c-0.395,0.953-0.878,1.857-1.451,2.716c-0.573,0.857-1.225,1.65-1.953,2.38c-0.729,0.729-1.523,1.381-2.38,1.954
	c-0.858,0.572-1.764,1.057-2.717,1.451s-1.935,0.692-2.946,0.894s-2.033,0.302-3.064,0.302c-1.032,0-2.053-0.101-3.064-0.302
	c-1.013-0.201-1.994-0.499-2.947-0.894s-1.858-0.879-2.715-1.451c-0.858-0.573-1.651-1.225-2.382-1.954
	c-0.729-0.729-1.38-1.522-1.952-2.38c-0.573-0.858-1.058-1.763-1.452-2.716c-0.396-0.953-0.693-1.936-0.895-2.947
	s-0.302-2.033-0.302-3.064s0.101-2.053,0.302-3.064s0.499-1.994,0.895-2.946c0.395-0.953,0.879-1.858,1.452-2.716
	c0.572-0.857,1.224-1.651,1.952-2.381c0.73-0.729,1.523-1.38,2.382-1.953c0.856-0.573,1.762-1.057,2.715-1.452
	c0.953-0.395,1.935-0.692,2.947-0.894C97.161,0.101,98.182,0,99.214,0z"/>
<path fill="#FFFFFF" d="M99.214,84.106c1.031,0,2.053,0.101,3.064,0.303c1.012,0.201,1.993,0.499,2.946,0.894
	s1.858,0.879,2.717,1.451c0.856,0.573,1.65,1.225,2.38,1.954c0.729,0.729,1.38,1.522,1.953,2.38s1.057,1.763,1.451,2.716
	c0.396,0.953,0.693,1.936,0.895,2.947c0.201,1.011,0.302,2.032,0.302,3.064c0,1.031-0.101,2.053-0.302,3.064
	s-0.499,1.993-0.895,2.946c-0.395,0.953-0.878,1.858-1.451,2.716s-1.225,1.651-1.953,2.381c-0.729,0.729-1.523,1.38-2.38,1.953
	c-0.858,0.573-1.764,1.057-2.717,1.451c-0.953,0.396-1.935,0.693-2.946,0.895s-2.033,0.302-3.064,0.302
	c-1.032,0-2.053-0.101-3.064-0.302c-1.013-0.201-1.994-0.499-2.947-0.895c-0.953-0.395-1.858-0.878-2.715-1.451
	c-0.858-0.573-1.651-1.225-2.382-1.953c-0.729-0.729-1.38-1.523-1.952-2.381c-0.573-0.857-1.058-1.763-1.452-2.716
	c-0.396-0.953-0.693-1.935-0.895-2.946s-0.302-2.033-0.302-3.064c0-1.032,0.101-2.054,0.302-3.064
	c0.201-1.012,0.499-1.994,0.895-2.947c0.395-0.953,0.879-1.858,1.452-2.716c0.572-0.857,1.224-1.65,1.952-2.38
	c0.73-0.729,1.523-1.381,2.382-1.954c0.856-0.572,1.762-1.057,2.715-1.451s1.935-0.692,2.947-0.894
	C97.161,84.207,98.182,84.106,99.214,84.106z"/>
<path fill="#FFFFFF" d="M15.708,84.106c1.032,0,2.053,0.101,3.065,0.303c1.011,0.201,1.993,0.499,2.945,0.894
	c0.953,0.395,1.859,0.879,2.717,1.451c0.857,0.573,1.65,1.225,2.381,1.954c0.729,0.729,1.38,1.522,1.953,2.38
	c0.572,0.857,1.057,1.763,1.451,2.716s0.692,1.936,0.895,2.947c0.201,1.011,0.301,2.032,0.301,3.064c0,1.031-0.1,2.053-0.301,3.064
	c-0.202,1.012-0.5,1.993-0.895,2.946s-0.879,1.858-1.451,2.716c-0.573,0.857-1.225,1.651-1.953,2.381
	c-0.73,0.729-1.523,1.38-2.381,1.953s-1.764,1.057-2.717,1.451c-0.952,0.396-1.935,0.693-2.945,0.895
	c-1.013,0.201-2.033,0.302-3.065,0.302c-1.031,0-2.053-0.101-3.063-0.302c-1.013-0.201-1.994-0.499-2.947-0.895
	c-0.953-0.395-1.858-0.878-2.717-1.451c-0.856-0.573-1.65-1.225-2.38-1.953c-0.729-0.729-1.381-1.523-1.954-2.381
	c-0.572-0.857-1.057-1.763-1.45-2.716c-0.396-0.953-0.693-1.935-0.895-2.946S0,100.847,0,99.815c0-1.032,0.101-2.054,0.302-3.064
	c0.201-1.012,0.499-1.994,0.895-2.947c0.394-0.953,0.878-1.858,1.45-2.716c0.573-0.857,1.226-1.65,1.954-2.38
	c0.729-0.729,1.523-1.381,2.38-1.954c0.858-0.572,1.764-1.057,2.717-1.451s1.935-0.692,2.947-0.894
	C13.655,84.207,14.677,84.106,15.708,84.106z"/>
<rect x="-1.799" y="54.329" transform="matrix(-0.7047 0.7095 -0.7095 -0.7047 138.9351 57.6937)" fill="#FFFFFF" width="118.52" height="6.865"/>
<rect x="6.521" y="33.731" transform="matrix(-0.6902 0.7236 -0.7236 -0.6902 88.0303 36.639)" fill="#FFFFFF" width="59.301" height="6.865"/>
</svg>
